<svg width="64" height="64" viewBox="0 0 64 64" fill="none" xmlns="http://www.w3.org/2000/svg">
<rect width="64" height="64" rx="32" fill="#6366F1"/>
<path d="M19.9688 47V16.4545H33.2131C35.5398 16.4545 37.4936 16.7678 39.0746 17.3942C40.6655 18.0206 41.8636 18.9055 42.669 20.049C43.4844 21.1925 43.892 22.5398 43.892 24.0909C43.892 25.2145 43.6435 26.2386 43.1463 27.1634C42.6591 28.0881 41.973 28.8636 41.0881 29.4901C40.2031 30.1065 39.169 30.5341 37.9858 30.7727V31.071C39.2983 31.1207 40.4915 31.4538 41.5653 32.0703C42.6392 32.6768 43.4943 33.517 44.1307 34.5909C44.767 35.6548 45.0852 36.9077 45.0852 38.3494C45.0852 40.0199 44.6477 41.5064 43.7727 42.8089C42.9077 44.1115 41.6747 45.1357 40.0739 45.8814C38.473 46.6271 36.5639 47 34.3466 47H19.9688ZM28.2614 40.3778H32.1392C33.5313 40.3778 34.5753 40.1193 35.2713 39.6023C35.9673 39.0753 36.3153 38.2997 36.3153 37.2756C36.3153 36.5597 36.1513 35.9531 35.8232 35.456C35.495 34.9588 35.0277 34.581 34.4212 34.3224C33.8246 34.0639 33.1037 33.9347 32.2585 33.9347H28.2614V40.3778ZM28.2614 28.804H31.6619C32.3878 28.804 33.0291 28.6896 33.5859 28.4609C34.1428 28.2322 34.5753 27.9041 34.8835 27.4766C35.2017 27.0391 35.3608 26.5071 35.3608 25.8807C35.3608 24.9361 35.0227 24.2152 34.3466 23.718C33.6705 23.2109 32.8153 22.9574 31.7812 22.9574H28.2614V28.804Z" fill="white"/>
</svg>
