<svg width="64" height="64" viewBox="0 0 64 64" fill="none" xmlns="http://www.w3.org/2000/svg">
<rect x="0.5" y="0.5" width="63" height="63" rx="31.5" fill="#464646"/>
<rect x="0.5" y="0.5" width="63" height="63" rx="31.5" stroke="black"/>
<path d="M46.4858 27.9091H38.0739C38.0142 27.2131 37.8551 26.5817 37.5966 26.0149C37.348 25.4482 37 24.9609 36.5526 24.5533C36.1151 24.1357 35.5831 23.8175 34.9567 23.5987C34.3303 23.37 33.6193 23.2557 32.8239 23.2557C31.4318 23.2557 30.2536 23.5937 29.2891 24.2699C28.3345 24.946 27.6087 25.9155 27.1115 27.1783C26.6243 28.4411 26.3807 29.9574 26.3807 31.7273C26.3807 33.5966 26.6293 35.1626 27.1264 36.4254C27.6335 37.6783 28.3643 38.6229 29.3189 39.2592C30.2734 39.8857 31.4219 40.1989 32.7642 40.1989C33.5298 40.1989 34.2159 40.1044 34.8224 39.9155C35.429 39.7166 35.956 39.4332 36.4034 39.0653C36.8509 38.6974 37.2138 38.255 37.4922 37.7379C37.7805 37.2109 37.9744 36.6193 38.0739 35.9631L46.4858 36.0227C46.3864 37.3153 46.0234 38.6328 45.397 39.9751C44.7706 41.3075 43.8807 42.5405 42.7273 43.674C41.5838 44.7976 40.1669 45.7024 38.4766 46.3885C36.7862 47.0746 34.8224 47.4176 32.5852 47.4176C29.7812 47.4176 27.2656 46.8161 25.0384 45.6129C22.821 44.4098 21.0661 42.6399 19.7734 40.3033C18.4908 37.9666 17.8494 35.108 17.8494 31.7273C17.8494 28.3267 18.5057 25.4631 19.8182 23.1364C21.1307 20.7997 22.9006 19.0348 25.1278 17.8416C27.3551 16.6385 29.8409 16.0369 32.5852 16.0369C34.5142 16.0369 36.2891 16.3004 37.9098 16.8274C39.5305 17.3544 40.9524 18.125 42.1754 19.1392C43.3984 20.1435 44.3828 21.3814 45.1286 22.853C45.8743 24.3246 46.3267 26.0099 46.4858 27.9091Z" fill="white"/>
</svg>
