<svg width="64" height="64" viewBox="0 0 64 64" fill="none" xmlns="http://www.w3.org/2000/svg">
<rect width="64" height="64" rx="4" fill="black"/>
<path d="M47.8409 27.1818H38.2273C38.1591 26.3864 37.9773 25.6648 37.6818 25.017C37.3977 24.3693 37 23.8125 36.4886 23.3466C35.9886 22.8693 35.3807 22.5057 34.6648 22.2557C33.9489 21.9943 33.1364 21.8636 32.2273 21.8636C30.6364 21.8636 29.2898 22.25 28.1875 23.0227C27.0966 23.7955 26.267 24.9034 25.6989 26.3466C25.142 27.7898 24.8636 29.5227 24.8636 31.5455C24.8636 33.6818 25.1477 35.4716 25.7159 36.9148C26.2955 38.3466 27.1307 39.4261 28.2216 40.1534C29.3125 40.8693 30.625 41.2273 32.1591 41.2273C33.0341 41.2273 33.8182 41.1193 34.5114 40.9034C35.2045 40.6761 35.8068 40.3523 36.3182 39.9318C36.8295 39.5114 37.2443 39.0057 37.5625 38.4148C37.892 37.8125 38.1136 37.1364 38.2273 36.3864L47.8409 36.4545C47.7273 37.9318 47.3125 39.4375 46.5966 40.9716C45.8807 42.4943 44.8636 43.9034 43.5455 45.1989C42.2386 46.483 40.6193 47.517 38.6875 48.3011C36.7557 49.0852 34.5114 49.4773 31.9545 49.4773C28.75 49.4773 25.875 48.7898 23.3295 47.4148C20.7955 46.0398 18.7898 44.017 17.3125 41.3466C15.8466 38.6761 15.1136 35.4091 15.1136 31.5455C15.1136 27.6591 15.8636 24.3864 17.3636 21.7273C18.8636 19.0568 20.8864 17.0398 23.4318 15.6761C25.9773 14.3011 28.8182 13.6136 31.9545 13.6136C34.1591 13.6136 36.1875 13.9148 38.0398 14.517C39.892 15.1193 41.517 16 42.9148 17.1591C44.3125 18.3068 45.4375 19.7216 46.2898 21.4034C47.142 23.0852 47.6591 25.0114 47.8409 27.1818Z" fill="white"/>
</svg>
